<svg xmlns="http://www.w3.org/2000/svg" width="337" height="279" viewBox="0 0 337 279">
  <defs>
    <style>
      .cls-1 {
        opacity: 0.5;
      }

      .cls-2 {
        fill: #fff;
      }
    </style>
  </defs>
  <g id="Group_24" data-name="Group 24" class="cls-1" transform="translate(-200 -1354.521)">
    <g id="Group_14" data-name="Group 14" transform="translate(200 1355)">
      <circle id="Ellipse_7" data-name="Ellipse 7" class="cls-2" cx="6.5" cy="6.5" r="6.5" transform="translate(0 -0.479)"/>
      <circle id="Ellipse_14" data-name="Ellipse 14" class="cls-2" cx="6.5" cy="6.5" r="6.5" transform="translate(118 -0.479)"/>
      <circle id="Ellipse_18" data-name="Ellipse 18" class="cls-2" cx="6.5" cy="6.5" r="6.5" transform="translate(236 -0.479)"/>
      <circle id="Ellipse_10" data-name="Ellipse 10" class="cls-2" cx="6.5" cy="6.5" r="6.5" transform="translate(59 -0.479)"/>
      <circle id="Ellipse_12" data-name="Ellipse 12" class="cls-2" cx="6.5" cy="6.5" r="6.5" transform="translate(177 -0.479)"/>
      <circle id="Ellipse_16" data-name="Ellipse 16" class="cls-2" cx="6.5" cy="6.5" r="6.5" transform="translate(295 -0.479)"/>
      <circle id="Ellipse_8" data-name="Ellipse 8" class="cls-2" cx="6.5" cy="6.5" r="6.5" transform="translate(29 -0.479)"/>
      <circle id="Ellipse_13" data-name="Ellipse 13" class="cls-2" cx="6.5" cy="6.5" r="6.5" transform="translate(147 -0.479)"/>
      <circle id="Ellipse_17" data-name="Ellipse 17" class="cls-2" cx="6.5" cy="6.5" r="6.5" transform="translate(265 -0.479)"/>
      <circle id="Ellipse_9" data-name="Ellipse 9" class="cls-2" cx="6.5" cy="6.5" r="6.5" transform="translate(88 -0.479)"/>
      <circle id="Ellipse_11" data-name="Ellipse 11" class="cls-2" cx="6.5" cy="6.5" r="6.5" transform="translate(206 -0.479)"/>
      <circle id="Ellipse_15" data-name="Ellipse 15" class="cls-2" cx="6.5" cy="6.5" r="6.5" transform="translate(324 -0.479)"/>
    </g>
    <g id="Group_17" data-name="Group 17" transform="translate(200 1413.958)">
      <circle id="Ellipse_7-2" data-name="Ellipse 7" class="cls-2" cx="6.5" cy="6.5" r="6.5" transform="translate(0 -0.437)"/>
      <circle id="Ellipse_14-2" data-name="Ellipse 14" class="cls-2" cx="6.5" cy="6.5" r="6.5" transform="translate(118 -0.437)"/>
      <circle id="Ellipse_18-2" data-name="Ellipse 18" class="cls-2" cx="6.5" cy="6.5" r="6.5" transform="translate(236 -0.437)"/>
      <circle id="Ellipse_10-2" data-name="Ellipse 10" class="cls-2" cx="6.5" cy="6.5" r="6.5" transform="translate(59 -0.437)"/>
      <circle id="Ellipse_12-2" data-name="Ellipse 12" class="cls-2" cx="6.5" cy="6.5" r="6.5" transform="translate(177 -0.437)"/>
      <circle id="Ellipse_16-2" data-name="Ellipse 16" class="cls-2" cx="6.5" cy="6.5" r="6.5" transform="translate(295 -0.437)"/>
      <circle id="Ellipse_8-2" data-name="Ellipse 8" class="cls-2" cx="6.5" cy="6.5" r="6.5" transform="translate(29 -0.437)"/>
      <circle id="Ellipse_13-2" data-name="Ellipse 13" class="cls-2" cx="6.5" cy="6.5" r="6.5" transform="translate(147 -0.437)"/>
      <circle id="Ellipse_17-2" data-name="Ellipse 17" class="cls-2" cx="6.5" cy="6.5" r="6.5" transform="translate(265 -0.437)"/>
      <circle id="Ellipse_9-2" data-name="Ellipse 9" class="cls-2" cx="6.5" cy="6.5" r="6.5" transform="translate(88 -0.437)"/>
      <circle id="Ellipse_11-2" data-name="Ellipse 11" class="cls-2" cx="6.5" cy="6.5" r="6.5" transform="translate(206 -0.437)"/>
      <circle id="Ellipse_15-2" data-name="Ellipse 15" class="cls-2" cx="6.5" cy="6.5" r="6.5" transform="translate(324 -0.437)"/>
    </g>
    <g id="Group_19" data-name="Group 19" transform="translate(200 1472.917)">
      <circle id="Ellipse_7-3" data-name="Ellipse 7" class="cls-2" cx="6.5" cy="6.5" r="6.5" transform="translate(0 -0.396)"/>
      <circle id="Ellipse_14-3" data-name="Ellipse 14" class="cls-2" cx="6.5" cy="6.5" r="6.5" transform="translate(118 -0.396)"/>
      <circle id="Ellipse_18-3" data-name="Ellipse 18" class="cls-2" cx="6.5" cy="6.5" r="6.5" transform="translate(236 -0.396)"/>
      <circle id="Ellipse_10-3" data-name="Ellipse 10" class="cls-2" cx="6.5" cy="6.5" r="6.5" transform="translate(59 -0.396)"/>
      <circle id="Ellipse_12-3" data-name="Ellipse 12" class="cls-2" cx="6.5" cy="6.5" r="6.5" transform="translate(177 -0.396)"/>
      <circle id="Ellipse_16-3" data-name="Ellipse 16" class="cls-2" cx="6.5" cy="6.5" r="6.5" transform="translate(295 -0.396)"/>
      <circle id="Ellipse_8-3" data-name="Ellipse 8" class="cls-2" cx="6.5" cy="6.5" r="6.5" transform="translate(29 -0.396)"/>
      <circle id="Ellipse_13-3" data-name="Ellipse 13" class="cls-2" cx="6.5" cy="6.5" r="6.5" transform="translate(147 -0.396)"/>
      <circle id="Ellipse_17-3" data-name="Ellipse 17" class="cls-2" cx="6.5" cy="6.5" r="6.5" transform="translate(265 -0.396)"/>
      <circle id="Ellipse_9-3" data-name="Ellipse 9" class="cls-2" cx="6.5" cy="6.5" r="6.5" transform="translate(88 -0.396)"/>
      <circle id="Ellipse_11-3" data-name="Ellipse 11" class="cls-2" cx="6.5" cy="6.5" r="6.5" transform="translate(206 -0.396)"/>
      <circle id="Ellipse_15-3" data-name="Ellipse 15" class="cls-2" cx="6.5" cy="6.5" r="6.5" transform="translate(324 -0.396)"/>
    </g>
    <g id="Group_21" data-name="Group 21" transform="translate(200 1531.875)">
      <circle id="Ellipse_7-4" data-name="Ellipse 7" class="cls-2" cx="6.5" cy="6.5" r="6.5" transform="translate(0 -0.354)"/>
      <circle id="Ellipse_14-4" data-name="Ellipse 14" class="cls-2" cx="6.5" cy="6.5" r="6.5" transform="translate(118 -0.354)"/>
      <circle id="Ellipse_18-4" data-name="Ellipse 18" class="cls-2" cx="6.5" cy="6.5" r="6.5" transform="translate(236 -0.354)"/>
      <circle id="Ellipse_10-4" data-name="Ellipse 10" class="cls-2" cx="6.5" cy="6.5" r="6.5" transform="translate(59 -0.354)"/>
      <circle id="Ellipse_12-4" data-name="Ellipse 12" class="cls-2" cx="6.5" cy="6.5" r="6.5" transform="translate(177 -0.354)"/>
      <circle id="Ellipse_16-4" data-name="Ellipse 16" class="cls-2" cx="6.5" cy="6.5" r="6.5" transform="translate(295 -0.354)"/>
      <circle id="Ellipse_8-4" data-name="Ellipse 8" class="cls-2" cx="6.5" cy="6.5" r="6.5" transform="translate(29 -0.354)"/>
      <circle id="Ellipse_13-4" data-name="Ellipse 13" class="cls-2" cx="6.5" cy="6.5" r="6.5" transform="translate(147 -0.354)"/>
      <circle id="Ellipse_17-4" data-name="Ellipse 17" class="cls-2" cx="6.5" cy="6.5" r="6.5" transform="translate(265 -0.354)"/>
      <circle id="Ellipse_9-4" data-name="Ellipse 9" class="cls-2" cx="6.5" cy="6.5" r="6.5" transform="translate(88 -0.354)"/>
      <circle id="Ellipse_11-4" data-name="Ellipse 11" class="cls-2" cx="6.5" cy="6.5" r="6.5" transform="translate(206 -0.354)"/>
      <circle id="Ellipse_15-4" data-name="Ellipse 15" class="cls-2" cx="6.5" cy="6.5" r="6.5" transform="translate(324 -0.354)"/>
    </g>
    <g id="Group_23" data-name="Group 23" transform="translate(200 1590.833)">
      <circle id="Ellipse_7-5" data-name="Ellipse 7" class="cls-2" cx="6.5" cy="6.5" r="6.5" transform="translate(0 -0.312)"/>
      <circle id="Ellipse_14-5" data-name="Ellipse 14" class="cls-2" cx="6.5" cy="6.5" r="6.5" transform="translate(118 -0.312)"/>
      <circle id="Ellipse_18-5" data-name="Ellipse 18" class="cls-2" cx="6.5" cy="6.5" r="6.5" transform="translate(236 -0.312)"/>
      <circle id="Ellipse_10-5" data-name="Ellipse 10" class="cls-2" cx="6.5" cy="6.5" r="6.5" transform="translate(59 -0.312)"/>
      <circle id="Ellipse_12-5" data-name="Ellipse 12" class="cls-2" cx="6.5" cy="6.5" r="6.5" transform="translate(177 -0.312)"/>
      <circle id="Ellipse_16-5" data-name="Ellipse 16" class="cls-2" cx="6.5" cy="6.5" r="6.5" transform="translate(295 -0.312)"/>
      <circle id="Ellipse_8-5" data-name="Ellipse 8" class="cls-2" cx="6.5" cy="6.5" r="6.5" transform="translate(29 -0.312)"/>
      <circle id="Ellipse_13-5" data-name="Ellipse 13" class="cls-2" cx="6.5" cy="6.5" r="6.5" transform="translate(147 -0.312)"/>
      <circle id="Ellipse_17-5" data-name="Ellipse 17" class="cls-2" cx="6.5" cy="6.5" r="6.5" transform="translate(265 -0.312)"/>
      <circle id="Ellipse_9-5" data-name="Ellipse 9" class="cls-2" cx="6.5" cy="6.5" r="6.5" transform="translate(88 -0.312)"/>
      <circle id="Ellipse_11-5" data-name="Ellipse 11" class="cls-2" cx="6.5" cy="6.5" r="6.5" transform="translate(206 -0.312)"/>
      <circle id="Ellipse_15-5" data-name="Ellipse 15" class="cls-2" cx="6.5" cy="6.5" r="6.5" transform="translate(324 -0.312)"/>
    </g>
    <g id="Group_15" data-name="Group 15" transform="translate(200 1384.479)">
      <circle id="Ellipse_7-6" data-name="Ellipse 7" class="cls-2" cx="6.5" cy="6.5" r="6.5" transform="translate(0 0.042)"/>
      <circle id="Ellipse_14-6" data-name="Ellipse 14" class="cls-2" cx="6.5" cy="6.5" r="6.5" transform="translate(118 0.042)"/>
      <circle id="Ellipse_18-6" data-name="Ellipse 18" class="cls-2" cx="6.5" cy="6.5" r="6.5" transform="translate(236 0.042)"/>
      <circle id="Ellipse_10-6" data-name="Ellipse 10" class="cls-2" cx="6.5" cy="6.5" r="6.5" transform="translate(59 0.042)"/>
      <circle id="Ellipse_12-6" data-name="Ellipse 12" class="cls-2" cx="6.5" cy="6.5" r="6.5" transform="translate(177 0.042)"/>
      <circle id="Ellipse_16-6" data-name="Ellipse 16" class="cls-2" cx="6.5" cy="6.5" r="6.5" transform="translate(295 0.042)"/>
      <circle id="Ellipse_8-6" data-name="Ellipse 8" class="cls-2" cx="6.5" cy="6.5" r="6.5" transform="translate(29 0.042)"/>
      <circle id="Ellipse_13-6" data-name="Ellipse 13" class="cls-2" cx="6.5" cy="6.5" r="6.5" transform="translate(147 0.042)"/>
      <circle id="Ellipse_17-6" data-name="Ellipse 17" class="cls-2" cx="6.5" cy="6.5" r="6.5" transform="translate(265 0.042)"/>
      <circle id="Ellipse_9-6" data-name="Ellipse 9" class="cls-2" cx="6.5" cy="6.5" r="6.5" transform="translate(88 0.042)"/>
      <circle id="Ellipse_11-6" data-name="Ellipse 11" class="cls-2" cx="6.5" cy="6.5" r="6.5" transform="translate(206 0.042)"/>
      <circle id="Ellipse_15-6" data-name="Ellipse 15" class="cls-2" cx="6.5" cy="6.5" r="6.5" transform="translate(324 0.042)"/>
    </g>
    <g id="Group_16" data-name="Group 16" transform="translate(200 1443.438)">
      <circle id="Ellipse_7-7" data-name="Ellipse 7" class="cls-2" cx="6.5" cy="6.5" r="6.5" transform="translate(0 0.083)"/>
      <circle id="Ellipse_14-7" data-name="Ellipse 14" class="cls-2" cx="6.5" cy="6.5" r="6.5" transform="translate(118 0.083)"/>
      <circle id="Ellipse_18-7" data-name="Ellipse 18" class="cls-2" cx="6.5" cy="6.5" r="6.5" transform="translate(236 0.083)"/>
      <circle id="Ellipse_10-7" data-name="Ellipse 10" class="cls-2" cx="6.5" cy="6.5" r="6.5" transform="translate(59 0.083)"/>
      <circle id="Ellipse_12-7" data-name="Ellipse 12" class="cls-2" cx="6.5" cy="6.5" r="6.5" transform="translate(177 0.083)"/>
      <circle id="Ellipse_16-7" data-name="Ellipse 16" class="cls-2" cx="6.5" cy="6.5" r="6.5" transform="translate(295 0.083)"/>
      <circle id="Ellipse_8-7" data-name="Ellipse 8" class="cls-2" cx="6.5" cy="6.5" r="6.5" transform="translate(29 0.083)"/>
      <circle id="Ellipse_13-7" data-name="Ellipse 13" class="cls-2" cx="6.5" cy="6.5" r="6.5" transform="translate(147 0.083)"/>
      <circle id="Ellipse_17-7" data-name="Ellipse 17" class="cls-2" cx="6.5" cy="6.5" r="6.5" transform="translate(265 0.083)"/>
      <circle id="Ellipse_9-7" data-name="Ellipse 9" class="cls-2" cx="6.5" cy="6.5" r="6.5" transform="translate(88 0.083)"/>
      <circle id="Ellipse_11-7" data-name="Ellipse 11" class="cls-2" cx="6.5" cy="6.5" r="6.5" transform="translate(206 0.083)"/>
      <circle id="Ellipse_15-7" data-name="Ellipse 15" class="cls-2" cx="6.5" cy="6.5" r="6.5" transform="translate(324 0.083)"/>
    </g>
    <g id="Group_18" data-name="Group 18" transform="translate(200 1502.396)">
      <circle id="Ellipse_7-8" data-name="Ellipse 7" class="cls-2" cx="6.5" cy="6.5" r="6.5" transform="translate(0 0.125)"/>
      <circle id="Ellipse_14-8" data-name="Ellipse 14" class="cls-2" cx="6.5" cy="6.5" r="6.5" transform="translate(118 0.125)"/>
      <circle id="Ellipse_18-8" data-name="Ellipse 18" class="cls-2" cx="6.5" cy="6.5" r="6.5" transform="translate(236 0.125)"/>
      <circle id="Ellipse_10-8" data-name="Ellipse 10" class="cls-2" cx="6.5" cy="6.5" r="6.5" transform="translate(59 0.125)"/>
      <circle id="Ellipse_12-8" data-name="Ellipse 12" class="cls-2" cx="6.5" cy="6.5" r="6.5" transform="translate(177 0.125)"/>
      <circle id="Ellipse_16-8" data-name="Ellipse 16" class="cls-2" cx="6.5" cy="6.5" r="6.5" transform="translate(295 0.125)"/>
      <circle id="Ellipse_8-8" data-name="Ellipse 8" class="cls-2" cx="6.5" cy="6.5" r="6.5" transform="translate(29 0.125)"/>
      <circle id="Ellipse_13-8" data-name="Ellipse 13" class="cls-2" cx="6.5" cy="6.5" r="6.5" transform="translate(147 0.125)"/>
      <circle id="Ellipse_17-8" data-name="Ellipse 17" class="cls-2" cx="6.5" cy="6.5" r="6.5" transform="translate(265 0.125)"/>
      <circle id="Ellipse_9-8" data-name="Ellipse 9" class="cls-2" cx="6.5" cy="6.5" r="6.5" transform="translate(88 0.125)"/>
      <circle id="Ellipse_11-8" data-name="Ellipse 11" class="cls-2" cx="6.5" cy="6.5" r="6.5" transform="translate(206 0.125)"/>
      <circle id="Ellipse_15-8" data-name="Ellipse 15" class="cls-2" cx="6.5" cy="6.5" r="6.5" transform="translate(324 0.125)"/>
    </g>
    <g id="Group_20" data-name="Group 20" transform="translate(200 1561.354)">
      <circle id="Ellipse_7-9" data-name="Ellipse 7" class="cls-2" cx="6.5" cy="6.5" r="6.5" transform="translate(0 0.167)"/>
      <circle id="Ellipse_14-9" data-name="Ellipse 14" class="cls-2" cx="6.5" cy="6.5" r="6.5" transform="translate(118 0.167)"/>
      <circle id="Ellipse_18-9" data-name="Ellipse 18" class="cls-2" cx="6.5" cy="6.5" r="6.5" transform="translate(236 0.167)"/>
      <circle id="Ellipse_10-9" data-name="Ellipse 10" class="cls-2" cx="6.5" cy="6.5" r="6.5" transform="translate(59 0.167)"/>
      <circle id="Ellipse_12-9" data-name="Ellipse 12" class="cls-2" cx="6.5" cy="6.5" r="6.5" transform="translate(177 0.167)"/>
      <circle id="Ellipse_16-9" data-name="Ellipse 16" class="cls-2" cx="6.5" cy="6.5" r="6.5" transform="translate(295 0.167)"/>
      <circle id="Ellipse_8-9" data-name="Ellipse 8" class="cls-2" cx="6.5" cy="6.5" r="6.5" transform="translate(29 0.167)"/>
      <circle id="Ellipse_13-9" data-name="Ellipse 13" class="cls-2" cx="6.5" cy="6.5" r="6.5" transform="translate(147 0.167)"/>
      <circle id="Ellipse_17-9" data-name="Ellipse 17" class="cls-2" cx="6.5" cy="6.5" r="6.5" transform="translate(265 0.167)"/>
      <circle id="Ellipse_9-9" data-name="Ellipse 9" class="cls-2" cx="6.5" cy="6.5" r="6.5" transform="translate(88 0.167)"/>
      <circle id="Ellipse_11-9" data-name="Ellipse 11" class="cls-2" cx="6.5" cy="6.5" r="6.5" transform="translate(206 0.167)"/>
      <circle id="Ellipse_15-9" data-name="Ellipse 15" class="cls-2" cx="6.5" cy="6.5" r="6.5" transform="translate(324 0.167)"/>
    </g>
    <g id="Group_22" data-name="Group 22" transform="translate(200 1620.312)">
      <circle id="Ellipse_7-10" data-name="Ellipse 7" class="cls-2" cx="6.5" cy="6.5" r="6.5" transform="translate(0 0.209)"/>
      <circle id="Ellipse_14-10" data-name="Ellipse 14" class="cls-2" cx="6.5" cy="6.5" r="6.5" transform="translate(118 0.209)"/>
      <circle id="Ellipse_18-10" data-name="Ellipse 18" class="cls-2" cx="6.5" cy="6.5" r="6.5" transform="translate(236 0.209)"/>
      <circle id="Ellipse_10-10" data-name="Ellipse 10" class="cls-2" cx="6.5" cy="6.5" r="6.5" transform="translate(59 0.209)"/>
      <circle id="Ellipse_12-10" data-name="Ellipse 12" class="cls-2" cx="6.5" cy="6.5" r="6.5" transform="translate(177 0.209)"/>
      <circle id="Ellipse_16-10" data-name="Ellipse 16" class="cls-2" cx="6.5" cy="6.5" r="6.5" transform="translate(295 0.209)"/>
      <circle id="Ellipse_8-10" data-name="Ellipse 8" class="cls-2" cx="6.5" cy="6.5" r="6.5" transform="translate(29 0.209)"/>
      <circle id="Ellipse_13-10" data-name="Ellipse 13" class="cls-2" cx="6.5" cy="6.5" r="6.5" transform="translate(147 0.209)"/>
      <circle id="Ellipse_17-10" data-name="Ellipse 17" class="cls-2" cx="6.5" cy="6.5" r="6.5" transform="translate(265 0.209)"/>
      <circle id="Ellipse_9-10" data-name="Ellipse 9" class="cls-2" cx="6.5" cy="6.5" r="6.5" transform="translate(88 0.209)"/>
      <circle id="Ellipse_11-10" data-name="Ellipse 11" class="cls-2" cx="6.5" cy="6.5" r="6.5" transform="translate(206 0.209)"/>
      <circle id="Ellipse_15-10" data-name="Ellipse 15" class="cls-2" cx="6.5" cy="6.5" r="6.5" transform="translate(324 0.209)"/>
    </g>
  </g>
</svg>
