<svg xmlns="http://www.w3.org/2000/svg" width="89.808" height="71.835" viewBox="0 0 89.808 71.835">
  <defs>
    <style>
      .cls-1 {
        fill: #fff;
      }
    </style>
  </defs>
  <path id="code" class="cls-1" d="M39.112,71.8l-8.559-2.484A1.686,1.686,0,0,1,29.4,67.228L48.555,1.253A1.686,1.686,0,0,1,50.646.1L59.2,2.586a1.686,1.686,0,0,1,1.151,2.091L41.2,70.652A1.681,1.681,0,0,1,39.112,71.8Zm-16-15.743,6.1-6.511a1.684,1.684,0,0,0-.112-2.413L16.4,35.952,29.108,24.769a1.672,1.672,0,0,0,.112-2.413l-6.1-6.511a1.686,1.686,0,0,0-2.385-.07L.512,34.717a1.673,1.673,0,0,0,0,2.455L20.731,56.129a1.673,1.673,0,0,0,2.385-.07Zm45.911.084L89.246,37.187a1.673,1.673,0,0,0,0-2.455L69.027,15.761a1.7,1.7,0,0,0-2.385.07l-6.1,6.511a1.684,1.684,0,0,0,.112,2.413l12.712,11.2L60.65,47.135a1.672,1.672,0,0,0-.112,2.413l6.1,6.511a1.686,1.686,0,0,0,2.385.084Z" transform="translate(0.025 -0.037)"/>
</svg>
