<?xml version="1.0" encoding="utf-8"?>
<!-- Generator: Adobe Illustrator 16.0.0, SVG Export Plug-In . SVG Version: 6.00 Build 0)  -->
<!DOCTYPE svg PUBLIC "-//W3C//DTD SVG 1.1//EN" "http://www.w3.org/Graphics/SVG/1.1/DTD/svg11.dtd">
<svg version="1.1" id="Layer_1" xmlns="http://www.w3.org/2000/svg" xmlns:xlink="http://www.w3.org/1999/xlink" x="0px" y="0px"
	 width="269.161px" height="269.158px" viewBox="90.049 55.454 269.161 269.158"
	 style="enable-background:new 90.049 55.454 269.161 269.158;" xml:space="preserve">
<style type="text/css">
<![CDATA[
	.st0{fill:#FFFFFF;}
]]>
</style>
<g transform="matrix(1, 0, 0, 1, 1294.53, 99.55)">
	<g>
		<path id="pencil-ruler-2_8_" class="st0" d="M-1146.94,84.198l70.747-70.737l-23.193-23.193l-32.424,32.425
			c-1.625,1.627-4.26,1.63-5.888,0.005c-0.002-0.002-0.003-0.003-0.005-0.005l-5.893-5.893c-1.627-1.625-1.63-4.26-0.006-5.887
			c0.002-0.002,0.004-0.004,0.006-0.006l32.424-32.425l-17.684-17.689c-6.51-6.512-17.067-6.513-23.579-0.002
			c-0.001,0.001-0.002,0.001-0.003,0.002l-47.16,47.159c-6.51,6.513-6.51,17.069,0,23.582L-1146.94,84.198z M-942.726,22.798
			c9.859-9.862,9.859-25.848,0-35.71L-966.513-36.7c-9.864-9.862-25.855-9.862-35.721,0l-24.191,24.187l59.509,59.508
			L-942.726,22.798z M-1038.326-0.611l-156.125,156.108l-9.862,56.479c-1.06,6.071,3.002,11.853,9.074,12.913
			c1.274,0.223,2.579,0.223,3.853-0.002l56.485-9.9l156.087-156.096L-1038.326-0.611z M-940.218,149.436l-17.684-17.685
			l-32.424,32.425c-1.624,1.628-4.261,1.63-5.888,0.005c-0.002-0.002-0.004-0.003-0.006-0.005l-5.893-5.894
			c-1.625-1.628-1.625-4.264,0-5.893l32.432-32.424l-23.199-23.2l-70.748,70.737l52.68,52.674c6.51,6.512,17.067,6.514,23.579,0.003
			c0.001-0.001,0.002-0.002,0.003-0.003l47.16-47.154c6.512-6.51,6.513-17.066,0.003-23.579c-0.001-0.001-0.002-0.001-0.003-0.003
			L-940.218,149.436z"/>
	</g>
</g>
</svg>
