<svg xmlns="http://www.w3.org/2000/svg" width="44.9" height="71.84" viewBox="0 0 44.9 71.84">
  <defs>
    <style>
      .cls-1 {
        fill: #fff;
      }
    </style>
  </defs>
  <path id="mobile-alt" class="cls-1" d="M38.165,0H6.735A6.737,6.737,0,0,0,0,6.735v58.37A6.737,6.737,0,0,0,6.735,71.84h31.43A6.737,6.737,0,0,0,44.9,65.105V6.735A6.737,6.737,0,0,0,38.165,0ZM22.45,67.35a4.49,4.49,0,1,1,4.49-4.49A4.485,4.485,0,0,1,22.45,67.35ZM38.165,52.2a1.689,1.689,0,0,1-1.684,1.684H8.419A1.689,1.689,0,0,1,6.735,52.2V8.419A1.689,1.689,0,0,1,8.419,6.735H36.481a1.689,1.689,0,0,1,1.684,1.684Z"/>
</svg>
